<mxfile host="app.diagrams.net" agent="Mozilla/5.0 (Windows NT 10.0; Win64; x64) AppleWebKit/537.36 (KHTML, like Gecko) Chrome/135.0.0.0 Safari/537.36" version="26.2.13" pages="2">
  <diagram name="PÃ¡gina-1" id="t_FXxwwPiiKie0Pc89_p">
    <mxGraphModel grid="1" page="1" gridSize="10" guides="1" tooltips="1" connect="1" arrows="1" fold="1" pageScale="1" pageWidth="827" pageHeight="1169" math="0" shadow="0">
      <root>
        <mxCell id="0" />
        <mxCell id="1" parent="0" />
        <mxCell id="6C7g_kUfa4vA_PYy4rX0-1" value="Cliente" style="whiteSpace=wrap;html=1;aspect=fixed;fillColor=#f8cecc;strokeColor=#b85450;" vertex="1" parent="1">
          <mxGeometry x="260" y="130" width="80" height="80" as="geometry" />
        </mxCell>
        <mxCell id="6C7g_kUfa4vA_PYy4rX0-3" value="Atendente" style="whiteSpace=wrap;html=1;aspect=fixed;fillColor=#f8cecc;strokeColor=#b85450;" vertex="1" parent="1">
          <mxGeometry x="360" y="130" width="80" height="80" as="geometry" />
        </mxCell>
        <mxCell id="6C7g_kUfa4vA_PYy4rX0-4" value="Cozinha" style="whiteSpace=wrap;html=1;aspect=fixed;fillColor=#f8cecc;strokeColor=#b85450;" vertex="1" parent="1">
          <mxGeometry x="460" y="130" width="80" height="80" as="geometry" />
        </mxCell>
        <mxCell id="6C7g_kUfa4vA_PYy4rX0-5" value="Papel" style="whiteSpace=wrap;html=1;aspect=fixed;fillColor=#dae8fc;strokeColor=#6c8ebf;" vertex="1" parent="1">
          <mxGeometry x="260" y="290" width="80" height="80" as="geometry" />
        </mxCell>
        <mxCell id="6C7g_kUfa4vA_PYy4rX0-6" value="Pedido" style="whiteSpace=wrap;html=1;aspect=fixed;fillColor=#dae8fc;strokeColor=#6c8ebf;" vertex="1" parent="1">
          <mxGeometry x="360" y="290" width="80" height="80" as="geometry" />
        </mxCell>
        <mxCell id="6C7g_kUfa4vA_PYy4rX0-7" value="Pagamento" style="whiteSpace=wrap;html=1;aspect=fixed;fillColor=#dae8fc;strokeColor=#6c8ebf;" vertex="1" parent="1">
          <mxGeometry x="460" y="290" width="80" height="80" as="geometry" />
        </mxCell>
        <mxCell id="6C7g_kUfa4vA_PYy4rX0-8" value="Menu" style="whiteSpace=wrap;html=1;aspect=fixed;fillColor=#dae8fc;strokeColor=#6c8ebf;" vertex="1" parent="1">
          <mxGeometry x="560" y="290" width="80" height="80" as="geometry" />
        </mxCell>
        <mxCell id="6C7g_kUfa4vA_PYy4rX0-13" style="edgeStyle=orthogonalEdgeStyle;rounded=0;orthogonalLoop=1;jettySize=auto;html=1;entryX=0;entryY=0.5;entryDx=0;entryDy=0;" edge="1" parent="1" source="6C7g_kUfa4vA_PYy4rX0-11" target="6C7g_kUfa4vA_PYy4rX0-15">
          <mxGeometry relative="1" as="geometry">
            <mxPoint x="530" y="690" as="targetPoint" />
          </mxGeometry>
        </mxCell>
        <mxCell id="6C7g_kUfa4vA_PYy4rX0-14" value="solicita" style="edgeLabel;html=1;align=center;verticalAlign=middle;resizable=0;points=[];" connectable="0" vertex="1" parent="6C7g_kUfa4vA_PYy4rX0-13">
          <mxGeometry x="0.1384" y="-2" relative="1" as="geometry">
            <mxPoint as="offset" />
          </mxGeometry>
        </mxCell>
        <mxCell id="6C7g_kUfa4vA_PYy4rX0-11" value="Cliente" style="whiteSpace=wrap;html=1;aspect=fixed;fillColor=#f8cecc;strokeColor=#b85450;" vertex="1" parent="1">
          <mxGeometry x="190" y="800" width="80" height="80" as="geometry" />
        </mxCell>
        <mxCell id="6C7g_kUfa4vA_PYy4rX0-17" style="edgeStyle=orthogonalEdgeStyle;rounded=0;orthogonalLoop=1;jettySize=auto;html=1;" edge="1" parent="1" source="6C7g_kUfa4vA_PYy4rX0-15" target="6C7g_kUfa4vA_PYy4rX0-16">
          <mxGeometry relative="1" as="geometry" />
        </mxCell>
        <mxCell id="6C7g_kUfa4vA_PYy4rX0-18" value="ao" style="edgeLabel;html=1;align=center;verticalAlign=middle;resizable=0;points=[];" connectable="0" vertex="1" parent="6C7g_kUfa4vA_PYy4rX0-17">
          <mxGeometry x="-0.1806" y="-1" relative="1" as="geometry">
            <mxPoint as="offset" />
          </mxGeometry>
        </mxCell>
        <mxCell id="6C7g_kUfa4vA_PYy4rX0-15" value="Menu" style="whiteSpace=wrap;html=1;aspect=fixed;fillColor=#dae8fc;strokeColor=#6c8ebf;" vertex="1" parent="1">
          <mxGeometry x="440" y="800" width="80" height="80" as="geometry" />
        </mxCell>
        <mxCell id="6C7g_kUfa4vA_PYy4rX0-29" style="edgeStyle=orthogonalEdgeStyle;rounded=0;orthogonalLoop=1;jettySize=auto;html=1;entryX=1;entryY=0.5;entryDx=0;entryDy=0;curved=1;exitX=0.5;exitY=1;exitDx=0;exitDy=0;" edge="1" parent="1" source="6C7g_kUfa4vA_PYy4rX0-16" target="6C7g_kUfa4vA_PYy4rX0-27">
          <mxGeometry relative="1" as="geometry" />
        </mxCell>
        <mxCell id="6C7g_kUfa4vA_PYy4rX0-31" value="entrega" style="edgeLabel;html=1;align=center;verticalAlign=middle;resizable=0;points=[];" connectable="0" vertex="1" parent="6C7g_kUfa4vA_PYy4rX0-29">
          <mxGeometry x="0.0538" y="-33" relative="1" as="geometry">
            <mxPoint as="offset" />
          </mxGeometry>
        </mxCell>
        <mxCell id="6C7g_kUfa4vA_PYy4rX0-46" style="edgeStyle=orthogonalEdgeStyle;rounded=0;orthogonalLoop=1;jettySize=auto;html=1;entryX=0;entryY=0.5;entryDx=0;entryDy=0;curved=1;" edge="1" parent="1" source="6C7g_kUfa4vA_PYy4rX0-16" target="6C7g_kUfa4vA_PYy4rX0-48">
          <mxGeometry relative="1" as="geometry">
            <mxPoint x="900" y="840" as="targetPoint" />
          </mxGeometry>
        </mxCell>
        <mxCell id="6C7g_kUfa4vA_PYy4rX0-47" value="anota" style="edgeLabel;html=1;align=center;verticalAlign=middle;resizable=0;points=[];" connectable="0" vertex="1" parent="6C7g_kUfa4vA_PYy4rX0-46">
          <mxGeometry x="-0.1778" relative="1" as="geometry">
            <mxPoint as="offset" />
          </mxGeometry>
        </mxCell>
        <mxCell id="6C7g_kUfa4vA_PYy4rX0-53" style="edgeStyle=orthogonalEdgeStyle;rounded=0;orthogonalLoop=1;jettySize=auto;html=1;entryX=0;entryY=0.5;entryDx=0;entryDy=0;" edge="1" parent="1" source="6C7g_kUfa4vA_PYy4rX0-16" target="6C7g_kUfa4vA_PYy4rX0-54">
          <mxGeometry relative="1" as="geometry">
            <mxPoint x="890" y="840" as="targetPoint" />
          </mxGeometry>
        </mxCell>
        <mxCell id="6C7g_kUfa4vA_PYy4rX0-55" value="entrega" style="edgeLabel;html=1;align=center;verticalAlign=middle;resizable=0;points=[];" connectable="0" vertex="1" parent="6C7g_kUfa4vA_PYy4rX0-53">
          <mxGeometry x="0.1491" relative="1" as="geometry">
            <mxPoint as="offset" />
          </mxGeometry>
        </mxCell>
        <mxCell id="6C7g_kUfa4vA_PYy4rX0-16" value="Atendente" style="whiteSpace=wrap;html=1;aspect=fixed;fillColor=#f8cecc;strokeColor=#b85450;" vertex="1" parent="1">
          <mxGeometry x="670" y="800" width="80" height="80" as="geometry" />
        </mxCell>
        <mxCell id="6C7g_kUfa4vA_PYy4rX0-19" value="3" style="ellipse;whiteSpace=wrap;html=1;aspect=fixed;fillColor=#e1d5e7;strokeColor=#9673a6;" vertex="1" parent="1">
          <mxGeometry x="320" y="660" width="20" height="20" as="geometry" />
        </mxCell>
        <mxCell id="6C7g_kUfa4vA_PYy4rX0-25" value="2" style="ellipse;whiteSpace=wrap;html=1;aspect=fixed;fillColor=#e1d5e7;strokeColor=#9673a6;" vertex="1" parent="1">
          <mxGeometry x="630" y="940" width="20" height="20" as="geometry" />
        </mxCell>
        <mxCell id="6C7g_kUfa4vA_PYy4rX0-32" style="edgeStyle=orthogonalEdgeStyle;rounded=0;orthogonalLoop=1;jettySize=auto;html=1;entryX=0.5;entryY=1;entryDx=0;entryDy=0;curved=1;" edge="1" parent="1" source="6C7g_kUfa4vA_PYy4rX0-27" target="6C7g_kUfa4vA_PYy4rX0-11">
          <mxGeometry relative="1" as="geometry" />
        </mxCell>
        <mxCell id="6C7g_kUfa4vA_PYy4rX0-33" value="ao" style="edgeLabel;html=1;align=center;verticalAlign=middle;resizable=0;points=[];" connectable="0" vertex="1" parent="6C7g_kUfa4vA_PYy4rX0-32">
          <mxGeometry x="-0.2121" y="-14" relative="1" as="geometry">
            <mxPoint as="offset" />
          </mxGeometry>
        </mxCell>
        <mxCell id="6JsAAuMGuDRQIuVCbDqK-28" style="edgeStyle=orthogonalEdgeStyle;rounded=0;orthogonalLoop=1;jettySize=auto;html=1;entryX=0.5;entryY=0;entryDx=0;entryDy=0;" edge="1" parent="1" source="6C7g_kUfa4vA_PYy4rX0-27" target="6JsAAuMGuDRQIuVCbDqK-24">
          <mxGeometry relative="1" as="geometry" />
        </mxCell>
        <mxCell id="6C7g_kUfa4vA_PYy4rX0-27" value="Menu" style="whiteSpace=wrap;html=1;aspect=fixed;fillColor=#dae8fc;strokeColor=#6c8ebf;" vertex="1" parent="1">
          <mxGeometry x="440" y="960" width="80" height="80" as="geometry" />
        </mxCell>
        <mxCell id="6C7g_kUfa4vA_PYy4rX0-41" style="edgeStyle=orthogonalEdgeStyle;rounded=0;orthogonalLoop=1;jettySize=auto;html=1;curved=1;" edge="1" parent="1" source="6C7g_kUfa4vA_PYy4rX0-34" target="6C7g_kUfa4vA_PYy4rX0-16">
          <mxGeometry relative="1" as="geometry" />
        </mxCell>
        <mxCell id="6C7g_kUfa4vA_PYy4rX0-42" value="ao" style="edgeLabel;html=1;align=center;verticalAlign=middle;resizable=0;points=[];" connectable="0" vertex="1" parent="6C7g_kUfa4vA_PYy4rX0-41">
          <mxGeometry x="-0.2778" y="-13" relative="1" as="geometry">
            <mxPoint as="offset" />
          </mxGeometry>
        </mxCell>
        <mxCell id="6C7g_kUfa4vA_PYy4rX0-34" value="Pedido" style="whiteSpace=wrap;html=1;aspect=fixed;fillColor=#dae8fc;strokeColor=#6c8ebf;" vertex="1" parent="1">
          <mxGeometry x="440" y="650" width="80" height="80" as="geometry" />
        </mxCell>
        <mxCell id="6C7g_kUfa4vA_PYy4rX0-35" style="edgeStyle=orthogonalEdgeStyle;rounded=0;orthogonalLoop=1;jettySize=auto;html=1;entryX=-0.01;entryY=0.423;entryDx=0;entryDy=0;entryPerimeter=0;curved=1;exitX=0.5;exitY=0;exitDx=0;exitDy=0;" edge="1" parent="1" source="6C7g_kUfa4vA_PYy4rX0-11" target="6C7g_kUfa4vA_PYy4rX0-34">
          <mxGeometry relative="1" as="geometry" />
        </mxCell>
        <mxCell id="6C7g_kUfa4vA_PYy4rX0-40" value="faz" style="edgeLabel;html=1;align=center;verticalAlign=middle;resizable=0;points=[];" connectable="0" vertex="1" parent="6C7g_kUfa4vA_PYy4rX0-35">
          <mxGeometry x="0.4517" y="-7" relative="1" as="geometry">
            <mxPoint as="offset" />
          </mxGeometry>
        </mxCell>
        <mxCell id="6C7g_kUfa4vA_PYy4rX0-36" value="1" style="ellipse;whiteSpace=wrap;html=1;aspect=fixed;fillColor=#e1d5e7;strokeColor=#9673a6;" vertex="1" parent="1">
          <mxGeometry x="404" y="820" width="20" height="20" as="geometry" />
        </mxCell>
        <mxCell id="6C7g_kUfa4vA_PYy4rX0-50" style="edgeStyle=orthogonalEdgeStyle;rounded=0;orthogonalLoop=1;jettySize=auto;html=1;" edge="1" parent="1" source="6C7g_kUfa4vA_PYy4rX0-48" target="6C7g_kUfa4vA_PYy4rX0-49">
          <mxGeometry relative="1" as="geometry" />
        </mxCell>
        <mxCell id="6C7g_kUfa4vA_PYy4rX0-51" value="no" style="edgeLabel;html=1;align=center;verticalAlign=middle;resizable=0;points=[];" connectable="0" vertex="1" parent="6C7g_kUfa4vA_PYy4rX0-50">
          <mxGeometry x="0.2121" y="-1" relative="1" as="geometry">
            <mxPoint as="offset" />
          </mxGeometry>
        </mxCell>
        <mxCell id="6C7g_kUfa4vA_PYy4rX0-48" value="Pedido" style="whiteSpace=wrap;html=1;aspect=fixed;fillColor=#dae8fc;strokeColor=#6c8ebf;" vertex="1" parent="1">
          <mxGeometry x="900" y="650" width="80" height="80" as="geometry" />
        </mxCell>
        <mxCell id="6JsAAuMGuDRQIuVCbDqK-21" style="edgeStyle=orthogonalEdgeStyle;rounded=0;orthogonalLoop=1;jettySize=auto;html=1;entryX=0.5;entryY=1;entryDx=0;entryDy=0;" edge="1" parent="1" source="6C7g_kUfa4vA_PYy4rX0-49" target="6JsAAuMGuDRQIuVCbDqK-19">
          <mxGeometry relative="1" as="geometry" />
        </mxCell>
        <mxCell id="6C7g_kUfa4vA_PYy4rX0-49" value="Papel" style="whiteSpace=wrap;html=1;aspect=fixed;fillColor=#dae8fc;strokeColor=#6c8ebf;" vertex="1" parent="1">
          <mxGeometry x="1140" y="650" width="80" height="80" as="geometry" />
        </mxCell>
        <mxCell id="6C7g_kUfa4vA_PYy4rX0-52" value="4" style="ellipse;whiteSpace=wrap;html=1;aspect=fixed;fillColor=#e1d5e7;strokeColor=#9673a6;" vertex="1" parent="1">
          <mxGeometry x="790" y="770" width="20" height="20" as="geometry" />
        </mxCell>
        <mxCell id="6C7g_kUfa4vA_PYy4rX0-57" style="edgeStyle=orthogonalEdgeStyle;rounded=0;orthogonalLoop=1;jettySize=auto;html=1;entryX=0;entryY=0.5;entryDx=0;entryDy=0;" edge="1" parent="1" source="6C7g_kUfa4vA_PYy4rX0-54" target="6C7g_kUfa4vA_PYy4rX0-59">
          <mxGeometry relative="1" as="geometry">
            <mxPoint x="1190" y="840" as="targetPoint" />
          </mxGeometry>
        </mxCell>
        <mxCell id="6C7g_kUfa4vA_PYy4rX0-58" value="para" style="edgeLabel;html=1;align=center;verticalAlign=middle;resizable=0;points=[];" connectable="0" vertex="1" parent="6C7g_kUfa4vA_PYy4rX0-57">
          <mxGeometry x="-0.1984" relative="1" as="geometry">
            <mxPoint as="offset" />
          </mxGeometry>
        </mxCell>
        <mxCell id="6JsAAuMGuDRQIuVCbDqK-23" style="edgeStyle=orthogonalEdgeStyle;rounded=0;orthogonalLoop=1;jettySize=auto;html=1;entryX=0.5;entryY=0;entryDx=0;entryDy=0;" edge="1" parent="1" source="6C7g_kUfa4vA_PYy4rX0-54" target="6JsAAuMGuDRQIuVCbDqK-22">
          <mxGeometry relative="1" as="geometry" />
        </mxCell>
        <mxCell id="6C7g_kUfa4vA_PYy4rX0-54" value="Pedido" style="whiteSpace=wrap;html=1;aspect=fixed;fillColor=#dae8fc;strokeColor=#6c8ebf;" vertex="1" parent="1">
          <mxGeometry x="940" y="800" width="80" height="80" as="geometry" />
        </mxCell>
        <mxCell id="6C7g_kUfa4vA_PYy4rX0-56" value="5" style="ellipse;whiteSpace=wrap;html=1;aspect=fixed;fillColor=#e1d5e7;strokeColor=#9673a6;" vertex="1" parent="1">
          <mxGeometry x="850" y="810" width="20" height="20" as="geometry" />
        </mxCell>
        <mxCell id="6C7g_kUfa4vA_PYy4rX0-63" style="edgeStyle=orthogonalEdgeStyle;rounded=0;orthogonalLoop=1;jettySize=auto;html=1;curved=1;entryX=0.5;entryY=0;entryDx=0;entryDy=0;exitX=0.5;exitY=0;exitDx=0;exitDy=0;" edge="1" parent="1" source="6C7g_kUfa4vA_PYy4rX0-59" target="6C7g_kUfa4vA_PYy4rX0-61">
          <mxGeometry relative="1" as="geometry">
            <mxPoint x="1270" y="660" as="targetPoint" />
            <Array as="points">
              <mxPoint x="1250" y="740" />
              <mxPoint x="1530" y="740" />
            </Array>
          </mxGeometry>
        </mxCell>
        <mxCell id="6C7g_kUfa4vA_PYy4rX0-66" value="prepara" style="edgeLabel;html=1;align=center;verticalAlign=middle;resizable=0;points=[];" connectable="0" vertex="1" parent="6C7g_kUfa4vA_PYy4rX0-63">
          <mxGeometry x="0.1444" y="-13" relative="1" as="geometry">
            <mxPoint x="-19" y="-13" as="offset" />
          </mxGeometry>
        </mxCell>
        <mxCell id="6C7g_kUfa4vA_PYy4rX0-73" value="entrega" style="edgeStyle=orthogonalEdgeStyle;rounded=0;orthogonalLoop=1;jettySize=auto;html=1;entryX=0.5;entryY=1;entryDx=0;entryDy=0;exitX=0.5;exitY=1;exitDx=0;exitDy=0;curved=1;" edge="1" parent="1" source="6C7g_kUfa4vA_PYy4rX0-59" target="6C7g_kUfa4vA_PYy4rX0-61">
          <mxGeometry relative="1" as="geometry">
            <mxPoint x="1510" y="949.9999999999998" as="targetPoint" />
            <Array as="points">
              <mxPoint x="1250" y="930" />
              <mxPoint x="1530" y="930" />
            </Array>
          </mxGeometry>
        </mxCell>
        <mxCell id="6C7g_kUfa4vA_PYy4rX0-59" value="Cozinha" style="whiteSpace=wrap;html=1;aspect=fixed;fillColor=#f8cecc;strokeColor=#b85450;" vertex="1" parent="1">
          <mxGeometry x="1210" y="800" width="80" height="80" as="geometry" />
        </mxCell>
        <mxCell id="6C7g_kUfa4vA_PYy4rX0-78" style="edgeStyle=orthogonalEdgeStyle;rounded=0;orthogonalLoop=1;jettySize=auto;html=1;" edge="1" parent="1" source="6C7g_kUfa4vA_PYy4rX0-61" target="6C7g_kUfa4vA_PYy4rX0-74">
          <mxGeometry relative="1" as="geometry" />
        </mxCell>
        <mxCell id="6C7g_kUfa4vA_PYy4rX0-79" value="ao" style="edgeLabel;html=1;align=center;verticalAlign=middle;resizable=0;points=[];" connectable="0" vertex="1" parent="6C7g_kUfa4vA_PYy4rX0-78">
          <mxGeometry x="0.1017" y="-2" relative="1" as="geometry">
            <mxPoint x="-1" as="offset" />
          </mxGeometry>
        </mxCell>
        <mxCell id="6C7g_kUfa4vA_PYy4rX0-61" value="Pedido" style="whiteSpace=wrap;html=1;aspect=fixed;fillColor=#dae8fc;strokeColor=#6c8ebf;" vertex="1" parent="1">
          <mxGeometry x="1490" y="800" width="80" height="80" as="geometry" />
        </mxCell>
        <mxCell id="6C7g_kUfa4vA_PYy4rX0-67" value="6" style="ellipse;whiteSpace=wrap;html=1;aspect=fixed;fillColor=#e1d5e7;strokeColor=#9673a6;" vertex="1" parent="1">
          <mxGeometry x="1390" y="710" width="20" height="20" as="geometry" />
        </mxCell>
        <mxCell id="6C7g_kUfa4vA_PYy4rX0-69" style="edgeStyle=orthogonalEdgeStyle;rounded=0;orthogonalLoop=1;jettySize=auto;html=1;curved=0;entryX=0;entryY=0.5;entryDx=0;entryDy=0;exitX=1.035;exitY=0.49;exitDx=0;exitDy=0;exitPerimeter=0;" edge="1" parent="1" source="6C7g_kUfa4vA_PYy4rX0-59" target="6C7g_kUfa4vA_PYy4rX0-61">
          <mxGeometry relative="1" as="geometry">
            <mxPoint x="1500" y="760" as="targetPoint" />
            <mxPoint x="1290" y="850" as="sourcePoint" />
          </mxGeometry>
        </mxCell>
        <mxCell id="6C7g_kUfa4vA_PYy4rX0-71" value="finaliza" style="edgeLabel;html=1;align=center;verticalAlign=middle;resizable=0;points=[];" connectable="0" vertex="1" parent="6C7g_kUfa4vA_PYy4rX0-69">
          <mxGeometry x="-0.1807" y="12" relative="1" as="geometry">
            <mxPoint x="16" y="13" as="offset" />
          </mxGeometry>
        </mxCell>
        <mxCell id="6C7g_kUfa4vA_PYy4rX0-72" value="7" style="ellipse;whiteSpace=wrap;html=1;aspect=fixed;fillColor=#e1d5e7;strokeColor=#9673a6;" vertex="1" parent="1">
          <mxGeometry x="1380" y="800" width="20" height="20" as="geometry" />
        </mxCell>
        <mxCell id="6C7g_kUfa4vA_PYy4rX0-81" style="edgeStyle=orthogonalEdgeStyle;rounded=0;orthogonalLoop=1;jettySize=auto;html=1;" edge="1" parent="1" source="6C7g_kUfa4vA_PYy4rX0-74" target="6C7g_kUfa4vA_PYy4rX0-80">
          <mxGeometry relative="1" as="geometry" />
        </mxCell>
        <mxCell id="6C7g_kUfa4vA_PYy4rX0-82" value="entrega" style="edgeLabel;html=1;align=center;verticalAlign=middle;resizable=0;points=[];" connectable="0" vertex="1" parent="6C7g_kUfa4vA_PYy4rX0-81">
          <mxGeometry x="-0.1636" y="-2" relative="1" as="geometry">
            <mxPoint as="offset" />
          </mxGeometry>
        </mxCell>
        <mxCell id="6C7g_kUfa4vA_PYy4rX0-96" style="edgeStyle=orthogonalEdgeStyle;rounded=0;orthogonalLoop=1;jettySize=auto;html=1;entryX=0;entryY=0.5;entryDx=0;entryDy=0;exitX=0.5;exitY=0;exitDx=0;exitDy=0;" edge="1" parent="1" source="6C7g_kUfa4vA_PYy4rX0-74" target="6C7g_kUfa4vA_PYy4rX0-98">
          <mxGeometry relative="1" as="geometry">
            <mxPoint x="1770" y="680" as="targetPoint" />
          </mxGeometry>
        </mxCell>
        <mxCell id="6C7g_kUfa4vA_PYy4rX0-97" value="finaliza" style="edgeLabel;html=1;align=center;verticalAlign=middle;resizable=0;points=[];" connectable="0" vertex="1" parent="6C7g_kUfa4vA_PYy4rX0-96">
          <mxGeometry x="-0.1527" relative="1" as="geometry">
            <mxPoint as="offset" />
          </mxGeometry>
        </mxCell>
        <mxCell id="6C7g_kUfa4vA_PYy4rX0-74" value="Atendente" style="whiteSpace=wrap;html=1;aspect=fixed;fillColor=#f8cecc;strokeColor=#b85450;" vertex="1" parent="1">
          <mxGeometry x="1710" y="800" width="80" height="80" as="geometry" />
        </mxCell>
        <mxCell id="6C7g_kUfa4vA_PYy4rX0-77" value="8" style="ellipse;whiteSpace=wrap;html=1;aspect=fixed;fillColor=#e1d5e7;strokeColor=#9673a6;" vertex="1" parent="1">
          <mxGeometry x="1380" y="900" width="20" height="20" as="geometry" />
        </mxCell>
        <mxCell id="6C7g_kUfa4vA_PYy4rX0-83" style="edgeStyle=orthogonalEdgeStyle;rounded=0;orthogonalLoop=1;jettySize=auto;html=1;entryX=0;entryY=0.5;entryDx=0;entryDy=0;" edge="1" parent="1" source="6C7g_kUfa4vA_PYy4rX0-80" target="6C7g_kUfa4vA_PYy4rX0-85">
          <mxGeometry relative="1" as="geometry">
            <mxPoint x="2120" y="840" as="targetPoint" />
          </mxGeometry>
        </mxCell>
        <mxCell id="6C7g_kUfa4vA_PYy4rX0-84" value="ao" style="edgeLabel;html=1;align=center;verticalAlign=middle;resizable=0;points=[];" connectable="0" vertex="1" parent="6C7g_kUfa4vA_PYy4rX0-83">
          <mxGeometry x="-0.0036" y="1" relative="1" as="geometry">
            <mxPoint y="-1" as="offset" />
          </mxGeometry>
        </mxCell>
        <mxCell id="6C7g_kUfa4vA_PYy4rX0-80" value="Pedido" style="whiteSpace=wrap;html=1;aspect=fixed;fillColor=#dae8fc;strokeColor=#6c8ebf;" vertex="1" parent="1">
          <mxGeometry x="1950" y="800" width="80" height="80" as="geometry" />
        </mxCell>
        <mxCell id="6C7g_kUfa4vA_PYy4rX0-87" style="edgeStyle=orthogonalEdgeStyle;rounded=0;orthogonalLoop=1;jettySize=auto;html=1;entryX=1;entryY=0.5;entryDx=0;entryDy=0;exitX=0.5;exitY=1;exitDx=0;exitDy=0;" edge="1" parent="1" source="6C7g_kUfa4vA_PYy4rX0-85" target="6C7g_kUfa4vA_PYy4rX0-88">
          <mxGeometry relative="1" as="geometry">
            <mxPoint x="2160" y="970" as="targetPoint" />
          </mxGeometry>
        </mxCell>
        <mxCell id="6C7g_kUfa4vA_PYy4rX0-89" value="faz" style="edgeLabel;html=1;align=center;verticalAlign=middle;resizable=0;points=[];" connectable="0" vertex="1" parent="6C7g_kUfa4vA_PYy4rX0-87">
          <mxGeometry x="-0.1376" y="-2" relative="1" as="geometry">
            <mxPoint x="-20" y="2" as="offset" />
          </mxGeometry>
        </mxCell>
        <mxCell id="6C7g_kUfa4vA_PYy4rX0-85" value="Cliente" style="whiteSpace=wrap;html=1;aspect=fixed;fillColor=#f8cecc;strokeColor=#b85450;" vertex="1" parent="1">
          <mxGeometry x="2120" y="800" width="80" height="80" as="geometry" />
        </mxCell>
        <mxCell id="6C7g_kUfa4vA_PYy4rX0-86" value="9" style="ellipse;whiteSpace=wrap;html=1;aspect=fixed;fillColor=#e1d5e7;strokeColor=#9673a6;" vertex="1" parent="1">
          <mxGeometry x="1850" y="810" width="20" height="20" as="geometry" />
        </mxCell>
        <mxCell id="6C7g_kUfa4vA_PYy4rX0-91" style="edgeStyle=orthogonalEdgeStyle;rounded=0;orthogonalLoop=1;jettySize=auto;html=1;entryX=0.5;entryY=1;entryDx=0;entryDy=0;" edge="1" parent="1" source="6C7g_kUfa4vA_PYy4rX0-88" target="6C7g_kUfa4vA_PYy4rX0-74">
          <mxGeometry relative="1" as="geometry" />
        </mxCell>
        <mxCell id="6C7g_kUfa4vA_PYy4rX0-92" value="com" style="edgeLabel;html=1;align=center;verticalAlign=middle;resizable=0;points=[];" connectable="0" vertex="1" parent="6C7g_kUfa4vA_PYy4rX0-91">
          <mxGeometry x="-0.1571" y="3" relative="1" as="geometry">
            <mxPoint as="offset" />
          </mxGeometry>
        </mxCell>
        <mxCell id="6JsAAuMGuDRQIuVCbDqK-16" value="" style="edgeStyle=orthogonalEdgeStyle;rounded=0;orthogonalLoop=1;jettySize=auto;html=1;" edge="1" parent="1" source="6C7g_kUfa4vA_PYy4rX0-88" target="6JsAAuMGuDRQIuVCbDqK-15">
          <mxGeometry relative="1" as="geometry" />
        </mxCell>
        <mxCell id="6C7g_kUfa4vA_PYy4rX0-88" value="Pagamento" style="whiteSpace=wrap;html=1;aspect=fixed;fillColor=#dae8fc;strokeColor=#6c8ebf;" vertex="1" parent="1">
          <mxGeometry x="1950" y="920" width="80" height="80" as="geometry" />
        </mxCell>
        <mxCell id="6C7g_kUfa4vA_PYy4rX0-90" value="10" style="ellipse;whiteSpace=wrap;html=1;aspect=fixed;fillColor=#e1d5e7;strokeColor=#9673a6;" vertex="1" parent="1">
          <mxGeometry x="2120" y="970" width="20" height="20" as="geometry" />
        </mxCell>
        <mxCell id="6JsAAuMGuDRQIuVCbDqK-27" style="edgeStyle=orthogonalEdgeStyle;rounded=0;orthogonalLoop=1;jettySize=auto;html=1;entryX=0.5;entryY=1;entryDx=0;entryDy=0;" edge="1" parent="1" source="6C7g_kUfa4vA_PYy4rX0-98" target="6JsAAuMGuDRQIuVCbDqK-26">
          <mxGeometry relative="1" as="geometry" />
        </mxCell>
        <mxCell id="6C7g_kUfa4vA_PYy4rX0-98" value="Pedido" style="whiteSpace=wrap;html=1;aspect=fixed;fillColor=#dae8fc;strokeColor=#6c8ebf;" vertex="1" parent="1">
          <mxGeometry x="1900" y="650" width="80" height="80" as="geometry" />
        </mxCell>
        <mxCell id="6C7g_kUfa4vA_PYy4rX0-99" value="11" style="ellipse;whiteSpace=wrap;html=1;aspect=fixed;fillColor=#e1d5e7;strokeColor=#9673a6;" vertex="1" parent="1">
          <mxGeometry x="1710" y="680" width="20" height="20" as="geometry" />
        </mxCell>
        <mxCell id="6JsAAuMGuDRQIuVCbDqK-1" value="Solicita" style="whiteSpace=wrap;html=1;aspect=fixed;fillColor=#fff2cc;strokeColor=#d6b656;" vertex="1" parent="1">
          <mxGeometry x="260" y="440" width="80" height="80" as="geometry" />
        </mxCell>
        <mxCell id="6JsAAuMGuDRQIuVCbDqK-2" value="Faz" style="whiteSpace=wrap;html=1;aspect=fixed;fillColor=#fff2cc;strokeColor=#d6b656;" vertex="1" parent="1">
          <mxGeometry x="360" y="440" width="80" height="80" as="geometry" />
        </mxCell>
        <mxCell id="6JsAAuMGuDRQIuVCbDqK-3" value="Entrega" style="whiteSpace=wrap;html=1;aspect=fixed;fillColor=#fff2cc;strokeColor=#d6b656;" vertex="1" parent="1">
          <mxGeometry x="460" y="440" width="80" height="80" as="geometry" />
        </mxCell>
        <mxCell id="6JsAAuMGuDRQIuVCbDqK-4" value="Anota" style="whiteSpace=wrap;html=1;aspect=fixed;fillColor=#fff2cc;strokeColor=#d6b656;" vertex="1" parent="1">
          <mxGeometry x="560" y="440" width="80" height="80" as="geometry" />
        </mxCell>
        <mxCell id="6JsAAuMGuDRQIuVCbDqK-5" value="Prepara" style="whiteSpace=wrap;html=1;aspect=fixed;fillColor=#fff2cc;strokeColor=#d6b656;" vertex="1" parent="1">
          <mxGeometry x="660" y="440" width="80" height="80" as="geometry" />
        </mxCell>
        <mxCell id="6JsAAuMGuDRQIuVCbDqK-6" value="Finaliza" style="whiteSpace=wrap;html=1;aspect=fixed;fillColor=#fff2cc;strokeColor=#d6b656;" vertex="1" parent="1">
          <mxGeometry x="760" y="440" width="80" height="80" as="geometry" />
        </mxCell>
        <mxCell id="6JsAAuMGuDRQIuVCbDqK-8" value="&lt;span style=&quot;font-size: 23px;&quot;&gt;&lt;b&gt;Atividades&lt;/b&gt;&lt;/span&gt;" style="text;html=1;align=center;verticalAlign=middle;resizable=0;points=[];autosize=1;strokeColor=none;fillColor=none;" vertex="1" parent="1">
          <mxGeometry x="460" y="393" width="140" height="40" as="geometry" />
        </mxCell>
        <mxCell id="6JsAAuMGuDRQIuVCbDqK-9" value="&lt;b&gt;&lt;font style=&quot;font-size: 23px;&quot;&gt;Objetos de Trabalho&lt;/font&gt;&lt;/b&gt;" style="text;html=1;align=center;verticalAlign=middle;resizable=0;points=[];autosize=1;strokeColor=none;fillColor=none;" vertex="1" parent="1">
          <mxGeometry x="410" y="230" width="240" height="40" as="geometry" />
        </mxCell>
        <mxCell id="6JsAAuMGuDRQIuVCbDqK-10" value="&lt;b&gt;&lt;font style=&quot;font-size: 23px;&quot;&gt;Atores&lt;/font&gt;&lt;/b&gt;" style="text;html=1;align=center;verticalAlign=middle;resizable=0;points=[];autosize=1;strokeColor=none;fillColor=none;" vertex="1" parent="1">
          <mxGeometry x="360" y="60" width="100" height="40" as="geometry" />
        </mxCell>
        <mxCell id="6JsAAuMGuDRQIuVCbDqK-15" value="&lt;h1 style=&quot;text-align: left; margin-top: 0px;&quot;&gt;&lt;span style=&quot;font-size: 12px; font-weight: 400;&quot;&gt;Qual meio de pagamento permitido? Existe alguma associaÃ§Ã£o da identificaÃ§Ã£o do pedido com o pagamento?&lt;/span&gt;&lt;/h1&gt;" style="whiteSpace=wrap;html=1;aspect=fixed;fillColor=#d5e8d4;strokeColor=#82b366;" vertex="1" parent="1">
          <mxGeometry x="1910" y="1090" width="160" height="160" as="geometry" />
        </mxCell>
        <mxCell id="6JsAAuMGuDRQIuVCbDqK-19" value="&lt;h1 style=&quot;text-align: left; margin-top: 0px;&quot;&gt;&lt;span style=&quot;font-size: 12px; font-weight: 400;&quot;&gt;Apenas uma papel em branco? Alguma comanda com as identificaÃ§Ã£o de combos permitidos?&lt;br&gt;&lt;br&gt;Ã anotado alguma informaÃ§Ã£o do cliente?&lt;/span&gt;&lt;/h1&gt;" style="whiteSpace=wrap;html=1;aspect=fixed;fillColor=#d5e8d4;strokeColor=#82b366;" vertex="1" parent="1">
          <mxGeometry x="1083.5" y="400" width="193" height="193" as="geometry" />
        </mxCell>
        <mxCell id="6JsAAuMGuDRQIuVCbDqK-22" value="&lt;h1 style=&quot;text-align: left; margin-top: 0px;&quot;&gt;&lt;span style=&quot;font-size: 12px; font-weight: 400;&quot;&gt;Como Ã© a organizaÃ§Ã£o da precedÃªncia dos pedidos recebidos?&lt;/span&gt;&lt;/h1&gt;" style="whiteSpace=wrap;html=1;aspect=fixed;fillColor=#d5e8d4;strokeColor=#82b366;" vertex="1" parent="1">
          <mxGeometry x="910" y="950" width="140" height="140" as="geometry" />
        </mxCell>
        <mxCell id="6JsAAuMGuDRQIuVCbDqK-24" value="&lt;h1 style=&quot;text-align: left; margin-top: 0px;&quot;&gt;&lt;span style=&quot;font-size: 12px; font-weight: 400;&quot;&gt;Qual tipo de menu, Digital ou fÃ­sico?&lt;/span&gt;&lt;/h1&gt;" style="whiteSpace=wrap;html=1;aspect=fixed;fillColor=#d5e8d4;strokeColor=#82b366;" vertex="1" parent="1">
          <mxGeometry x="425" y="1120" width="110" height="110" as="geometry" />
        </mxCell>
        <mxCell id="6JsAAuMGuDRQIuVCbDqK-26" value="&lt;h1 style=&quot;text-align: left; margin-top: 0px;&quot;&gt;&lt;span style=&quot;font-size: 12px; font-weight: 400;&quot;&gt;Como Ã© realizado a identificaÃ§Ã£o do pedido para finaliza-lo?&lt;/span&gt;&lt;/h1&gt;" style="whiteSpace=wrap;html=1;aspect=fixed;fillColor=#d5e8d4;strokeColor=#82b366;" vertex="1" parent="1">
          <mxGeometry x="1885" y="450" width="110" height="110" as="geometry" />
        </mxCell>
      </root>
    </mxGraphModel>
  </diagram>
  <diagram id="4MH_I1Ij7US2POTVUzsQ" name="PÃ¡gina-2">
    <mxGraphModel grid="1" page="1" gridSize="10" guides="1" tooltips="1" connect="1" arrows="1" fold="1" pageScale="1" pageWidth="827" pageHeight="1169" math="0" shadow="0">
      <root>
        <mxCell id="0" />
        <mxCell id="1" parent="0" />
        <mxCell id="5l8GCJ2TVnO8TNoiDhot-1" value="" style="rounded=0;whiteSpace=wrap;html=1;fillColor=#dae8fc;strokeColor=#6c8ebf;" vertex="1" parent="1">
          <mxGeometry x="240" y="560" width="360" height="190" as="geometry" />
        </mxCell>
        <mxCell id="5l8GCJ2TVnO8TNoiDhot-2" value="GestÃ£o de Cliente" style="rounded=0;whiteSpace=wrap;html=1;fillColor=#f8cecc;strokeColor=#b85450;" vertex="1" parent="1">
          <mxGeometry x="360" y="625" width="120" height="60" as="geometry" />
        </mxCell>
        <mxCell id="5l8GCJ2TVnO8TNoiDhot-3" value="Atendimento" style="text;html=1;align=center;verticalAlign=middle;resizable=0;points=[];autosize=1;strokeColor=none;fillColor=none;" vertex="1" parent="1">
          <mxGeometry x="375" y="530" width="90" height="30" as="geometry" />
        </mxCell>
        <mxCell id="5l8GCJ2TVnO8TNoiDhot-4" value="" style="rounded=0;whiteSpace=wrap;html=1;fillColor=#dae8fc;strokeColor=#6c8ebf;" vertex="1" parent="1">
          <mxGeometry x="760" y="560" width="360" height="190" as="geometry" />
        </mxCell>
        <mxCell id="5l8GCJ2TVnO8TNoiDhot-5" value="Pedido" style="text;html=1;align=center;verticalAlign=middle;resizable=0;points=[];autosize=1;strokeColor=none;fillColor=none;" vertex="1" parent="1">
          <mxGeometry x="910" y="530" width="60" height="30" as="geometry" />
        </mxCell>
        <mxCell id="5l8GCJ2TVnO8TNoiDhot-6" value="GestÃ£o do pagamento do pedido" style="rounded=0;whiteSpace=wrap;html=1;fillColor=#d5e8d4;strokeColor=#82b366;" vertex="1" parent="1">
          <mxGeometry x="790" y="625" width="120" height="60" as="geometry" />
        </mxCell>
        <mxCell id="5l8GCJ2TVnO8TNoiDhot-7" value="GestÃ£o do pedido" style="rounded=0;whiteSpace=wrap;html=1;fillColor=#d5e8d4;strokeColor=#82b366;" vertex="1" parent="1">
          <mxGeometry x="970" y="625" width="120" height="60" as="geometry" />
        </mxCell>
        <mxCell id="5l8GCJ2TVnO8TNoiDhot-8" value="" style="rounded=0;whiteSpace=wrap;html=1;fillColor=#dae8fc;strokeColor=#6c8ebf;" vertex="1" parent="1">
          <mxGeometry x="240" y="790" width="360" height="190" as="geometry" />
        </mxCell>
        <mxCell id="5l8GCJ2TVnO8TNoiDhot-9" value="GestÃ£o de categoria" style="rounded=0;whiteSpace=wrap;html=1;fillColor=#d5e8d4;strokeColor=#82b366;" vertex="1" parent="1">
          <mxGeometry x="255" y="810" width="120" height="60" as="geometry" />
        </mxCell>
        <mxCell id="5l8GCJ2TVnO8TNoiDhot-10" value="GestÃ£o de produto" style="rounded=0;whiteSpace=wrap;html=1;fillColor=#d5e8d4;strokeColor=#82b366;" vertex="1" parent="1">
          <mxGeometry x="465" y="810" width="120" height="60" as="geometry" />
        </mxCell>
        <mxCell id="5l8GCJ2TVnO8TNoiDhot-11" value="Listagem de produtos" style="rounded=0;whiteSpace=wrap;html=1;fillColor=#d5e8d4;strokeColor=#82b366;" vertex="1" parent="1">
          <mxGeometry x="255" y="900" width="120" height="60" as="geometry" />
        </mxCell>
        <mxCell id="5l8GCJ2TVnO8TNoiDhot-12" value="Listagem de categorias" style="rounded=0;whiteSpace=wrap;html=1;fillColor=#d5e8d4;strokeColor=#82b366;" vertex="1" parent="1">
          <mxGeometry x="465" y="900" width="120" height="60" as="geometry" />
        </mxCell>
        <mxCell id="5l8GCJ2TVnO8TNoiDhot-13" value="Estoque" style="text;html=1;align=center;verticalAlign=middle;resizable=0;points=[];autosize=1;strokeColor=none;fillColor=none;" vertex="1" parent="1">
          <mxGeometry x="385" y="760" width="70" height="30" as="geometry" />
        </mxCell>
        <mxCell id="5l8GCJ2TVnO8TNoiDhot-14" value="" style="rounded=0;whiteSpace=wrap;html=1;fillColor=#dae8fc;strokeColor=#6c8ebf;" vertex="1" parent="1">
          <mxGeometry x="760" y="790" width="360" height="190" as="geometry" />
        </mxCell>
        <mxCell id="5l8GCJ2TVnO8TNoiDhot-15" value="GestÃ£o do preparo do pedido" style="rounded=0;whiteSpace=wrap;html=1;fillColor=#d5e8d4;strokeColor=#82b366;" vertex="1" parent="1">
          <mxGeometry x="790" y="855" width="120" height="60" as="geometry" />
        </mxCell>
        <mxCell id="5l8GCJ2TVnO8TNoiDhot-16" value="Listagem da situaÃ§Ã£o do preparo do pedido" style="rounded=0;whiteSpace=wrap;html=1;fillColor=#d5e8d4;strokeColor=#82b366;" vertex="1" parent="1">
          <mxGeometry x="970" y="855" width="120" height="60" as="geometry" />
        </mxCell>
        <mxCell id="5l8GCJ2TVnO8TNoiDhot-17" value="Ãrea de Trabalho - Cozinha" style="text;html=1;align=center;verticalAlign=middle;resizable=0;points=[];autosize=1;strokeColor=none;fillColor=none;" vertex="1" parent="1">
          <mxGeometry x="855" y="760" width="170" height="30" as="geometry" />
        </mxCell>
      </root>
    </mxGraphModel>
  </diagram>
</mxfile>
